# xmcd
#
# Track frame offsets: 
#        150
#        13528
#        32137
#        46390
#        64428
#        84159
#        96023
#        116370
#        133884
#        155469
#
# Disc length: 2279 seconds
#
# Revision: 0
# Processed by: cddbd v1.5.2PL0 Copyright (c) Steve Scherf et al.
# Submitted via: ExactAudioCopy v1.0b3
#
DISCID=7b08e50a
DTITLE=The Dirty Beggars - Bite the Bullet
DYEAR=2011
DGENRE=Americana
TTITLE0=Hey Hey
TTITLE1=Nashville Wave Goodbye
TTITLE2=Too Tired (To Work Down That Farm Today)
TTITLE3=Calm Before the Storm
TTITLE4=Underneath the Sky
TTITLE5=When the Cockerel Crows
TTITLE6=Tunnel Light
TTITLE7=Homecoming Day
TTITLE8=Before the Devil Knows I'm Dead
TTITLE9=Bite the Bullet
EXTD=
EXTT0=
EXTT1=
EXTT2=
EXTT3=
EXTT4=
EXTT5=
EXTT6=
EXTT7=
EXTT8=
EXTT9=
PLAYORDER=
